<?xml version="1.0" standalone="no"?>
<!DOCTYPE svg PUBLIC "-//W3C//DTD SVG 20010904//EN"
 "http://www.w3.org/TR/2001/REC-SVG-20010904/DTD/svg10.dtd">
<svg version="1.0" xmlns="http://www.w3.org/2000/svg"
 width="512.000000pt" height="512.000000pt" viewBox="0 0 512.000000 512.000000"
 preserveAspectRatio="xMidYMid meet">
<metadata>
Created by potrace 1.11, written by Peter Selinger 2001-2013
</metadata>
<g transform="translate(0.000000,512.000000) scale(0.100000,-0.100000)"
fill="#000000" stroke="none">
<path d="M2355 4273 c-66 -14 -149 -52 -210 -97 -72 -53 -145 -122 -145 -137
0 -5 -3 -9 -8 -9 -4 0 -16 -17 -27 -37 -11 -21 -22 -40 -25 -43 -16 -14 -55
-105 -80 -184 -44 -144 -39 -266 15 -381 14 -28 25 -55 25 -58 0 -7 -28 -42
-70 -88 -37 -40 -62 -70 -95 -114 -45 -61 -48 -65 -72 -91 -12 -13 -24 -32
-27 -42 -4 -11 -15 -27 -26 -37 -11 -10 -20 -23 -20 -28 0 -6 -11 -25 -25 -43
-14 -18 -25 -37 -25 -43 0 -6 -4 -11 -9 -11 -5 0 -11 -8 -15 -17 -3 -10 -22
-45 -41 -78 -19 -33 -41 -71 -47 -85 -7 -14 -15 -27 -18 -30 -3 -3 -14 -24
-25 -47 -11 -24 -23 -43 -27 -43 -5 0 -8 -8 -8 -17 0 -10 -12 -36 -25 -58 -14
-22 -25 -48 -25 -57 0 -10 -4 -18 -10 -18 -5 0 -10 -6 -10 -14 0 -7 -7 -27
-15 -42 -8 -16 -15 -39 -15 -51 0 -13 -4 -23 -8 -23 -16 0 -42 -167 -42 -265
0 -91 25 -253 40 -265 4 -3 9 -16 12 -30 7 -29 31 -93 38 -100 8 -8 60 -89 60
-94 0 -10 68 -71 129 -117 36 -27 71 -52 76 -56 6 -5 27 -17 48 -28 40 -21 42
-26 27 -55 -7 -13 -27 -20 -70 -25 -33 -4 -60 -11 -60 -16 0 -5 -7 -9 -16 -9
-42 0 -138 -84 -180 -158 -57 -100 -59 -287 -4 -356 26 -33 70 -75 95 -92 25
-16 25 -17 25 -180 0 -90 -4 -172 -9 -182 -5 -9 -17 -48 -27 -87 -9 -38 -20
-72 -23 -75 -4 -3 -12 -17 -18 -32 -12 -27 -11 -28 16 -28 25 0 31 5 36 30 5
25 12 30 36 30 26 0 28 -2 19 -26 -6 -14 -10 -27 -10 -30 0 -2 81 -4 181 -4
l181 0 -7 118 c-10 167 17 282 65 282 26 0 58 -45 65 -89 3 -20 10 -44 16 -53
5 -10 9 -58 9 -107 0 -49 3 -103 6 -120 l7 -31 806 2 806 3 3 80 c3 101 9 119
27 85 8 -14 14 -33 15 -42 0 -10 5 -18 10 -18 6 0 10 -7 10 -15 0 -16 25 -60
47 -83 8 -9 63 -12 203 -12 l191 0 -16 27 c-9 16 -27 46 -40 68 -39 64 -95
184 -95 205 0 10 -4 20 -8 22 -11 4 -62 178 -62 211 0 16 -5 38 -11 49 -10 19
-6 27 35 65 25 24 46 48 46 52 0 5 7 14 15 21 8 7 15 21 15 31 0 11 4 19 8 19
13 0 32 94 32 156 0 70 -17 137 -48 193 -29 53 -36 62 -81 104 -70 67 -81 76
-103 83 -13 3 -25 10 -28 14 -12 17 -125 50 -171 50 l-51 0 51 53 c28 28 51
58 51 65 0 6 3 12 8 12 10 0 42 58 42 76 0 8 4 14 9 14 5 0 11 10 14 23 3 12
16 49 29 82 21 56 23 75 23 285 0 217 -1 228 -27 317 -16 50 -28 99 -28 107 0
9 -4 16 -10 16 -5 0 -10 10 -10 23 -1 12 -7 33 -15 47 -8 14 -14 35 -15 47 0
12 -3 23 -7 25 -10 4 -63 110 -63 126 0 6 -3 12 -8 12 -4 0 -13 14 -20 30 -8
17 -19 36 -25 43 -7 6 -20 28 -30 47 -31 61 -44 81 -76 117 -17 19 -31 38 -31
42 0 4 -12 22 -27 39 -16 17 -37 43 -48 58 -37 48 -257 272 -297 301 -21 15
-53 40 -70 56 -17 15 -38 27 -45 27 -7 0 -13 4 -13 8 0 5 -35 26 -77 47 -109
53 -104 46 -75 118 23 55 26 76 26 197 1 128 -1 139 -28 205 -17 39 -33 72
-36 75 -4 3 -14 19 -24 35 -44 75 -220 148 -311 128z m-105 -164 c0 -30 -28
-48 -72 -49 -44 0 -48 13 -16 47 29 31 88 33 88 2z m-130 -84 c0 -8 -4 -15 -9
-15 -5 0 -11 -10 -15 -22 -6 -24 -66 -98 -78 -98 -5 0 -19 -10 -33 -22 -33
-29 -36 -106 -5 -128 22 -16 29 -83 10 -95 -5 -3 -10 -19 -10 -35 0 -41 -10
-60 -30 -60 -32 0 -46 93 -32 208 7 53 16 99 20 102 5 3 14 21 22 40 29 73
160 175 160 125z m-36 -173 c8 -13 -8 -30 -36 -37 -28 -7 -43 6 -34 30 6 16
61 21 70 7z m193 -78 c-3 -3 -12 -4 -19 -1 -8 3 -5 6 6 6 11 1 17 -2 13 -5z
m350 -356 c-3 -8 -6 -5 -6 6 -1 11 2 17 5 13 3 -3 4 -12 1 -19z m-890 -390
c-3 -8 -6 -5 -6 6 -1 11 2 17 5 13 3 -3 4 -12 1 -19z m-24 -36 c-3 -12 -9 -22
-13 -22 -4 0 -15 -19 -26 -42 -10 -24 -27 -52 -36 -62 -10 -11 -18 -26 -18
-33 0 -7 -4 -13 -10 -13 -5 0 -10 -5 -10 -11 0 -16 -63 -143 -72 -147 -5 -2
-8 -9 -8 -16 0 -7 -11 -35 -25 -62 -14 -27 -25 -56 -25 -64 0 -9 -8 -32 -19
-53 -10 -20 -22 -54 -26 -74 -4 -21 -10 -42 -13 -48 -14 -22 -32 -104 -38
-178 -4 -43 -11 -80 -16 -83 -11 -7 -10 -142 2 -149 6 -3 10 -23 10 -44 0 -37
27 -142 39 -151 3 -3 15 -23 26 -45 20 -40 90 -114 184 -196 l53 -46 -22 -21
c-30 -28 -21 -75 13 -70 16 2 23 11 25 32 2 16 -2 32 -9 37 -8 4 -11 11 -7 14
6 7 72 -57 113 -110 11 -14 26 -33 34 -41 16 -18 22 -19 -61 6 -27 8 -48 18
-48 22 0 4 -9 8 -19 8 -11 0 -21 3 -23 8 -1 4 -29 20 -60 36 -32 15 -58 32
-58 37 0 5 -5 9 -11 9 -21 0 -189 166 -189 187 0 8 -13 33 -47 94 -32 55 -55
192 -50 290 5 104 27 239 39 239 4 0 8 11 8 24 0 14 5 28 10 31 6 3 10 15 10
26 0 10 4 19 9 19 5 0 12 16 15 35 4 19 11 35 16 35 6 0 10 9 10 19 0 11 4 22
9 25 5 3 12 17 15 31 3 13 20 47 36 75 16 28 32 61 36 74 3 13 14 33 24 43 9
11 21 30 25 44 4 13 11 26 14 29 10 8 44 61 64 103 11 20 23 37 28 37 5 0 9 6
9 14 0 8 6 21 13 28 7 7 22 27 33 43 21 33 38 54 41 51 1 -1 0 -12 -4 -24z
m867 18 c0 -5 20 -10 44 -10 58 0 104 -21 156 -69 35 -32 43 -47 47 -85 7 -59
-4 -116 -22 -116 -8 0 -15 -4 -15 -9 0 -5 -8 -11 -17 -14 -10 -3 -38 -13 -63
-22 -25 -9 -85 -24 -135 -32 -49 -8 -115 -19 -145 -24 -30 -6 -89 -12 -130
-16 -41 -3 -78 -10 -82 -16 -4 -7 -76 -11 -200 -11 l-194 -1 -33 34 c-36 36
-81 128 -81 163 0 22 67 98 88 98 6 0 12 4 12 9 0 5 15 13 33 16 17 4 37 10
42 14 48 34 344 81 512 81 62 0 103 4 103 10 0 6 18 10 40 10 22 0 40 -4 40
-10z m-70 -969 c0 -33 5 -63 10 -66 14 -9 12 -146 -2 -177 -9 -18 -23 -28 -43
-32 -16 -2 -49 -8 -72 -11 l-43 -7 0 166 0 165 33 5 c28 5 47 8 105 15 8 1 12
-17 12 -58z m-170 -126 c0 -91 -4 -165 -8 -165 -39 0 -92 64 -92 110 0 11 -4
20 -10 20 -6 0 -10 38 -10 94 l0 95 43 4 c23 2 50 4 60 5 16 2 17 -12 17 -163z
m-627 -682 c-7 -2 -21 -2 -30 0 -10 3 -4 5 12 5 17 0 24 -2 18 -5z m25 -60
c-1 -48 -1 -48 -5 -8 -3 22 -10 43 -16 47 -8 5 -6 8 6 8 14 0 17 -8 15 -47z
m1329 -229 c-3 -3 -12 -4 -19 -1 -8 3 -5 6 6 6 11 1 17 -2 13 -5z m-50 -20
c-3 -3 -12 -4 -19 -1 -8 3 -5 6 6 6 11 1 17 -2 13 -5z m50 -30 c-3 -3 -12 -4
-19 -1 -8 3 -5 6 6 6 11 1 17 -2 13 -5z m-924 -21 c-7 -2 -21 -2 -30 0 -10 3
-4 5 12 5 17 0 24 -2 18 -5z m620 0 c-13 -2 -33 -2 -45 0 -13 2 -3 4 22 4 25
0 35 -2 23 -4z m-695 -30 c-10 -2 -26 -2 -35 0 -10 3 -2 5 17 5 19 0 27 -2 18
-5z m790 0 c-10 -2 -26 -2 -35 0 -10 3 -2 5 17 5 19 0 27 -2 18 -5z m-695 -20
c-13 -2 -33 -2 -45 0 -13 2 -3 4 22 4 25 0 35 -2 23 -4z m585 0 c-16 -2 -40
-2 -55 0 -16 2 -3 4 27 4 30 0 43 -2 28 -4z m-848 -223 c18 -44 1 -80 -38 -80
-35 0 -82 34 -82 60 0 41 11 50 60 50 44 0 49 -3 60 -30z m-425 -457 c-5 -38
-9 -43 -32 -43 -20 0 -24 3 -18 18 4 9 10 29 13 45 2 15 8 30 13 33 5 3 9 29
9 58 0 29 3 56 8 60 9 10 15 -117 7 -171z"/>
</g>
</svg>
